<svg xmlns="http://www.w3.org/2000/svg" xmlns:xlink="http://www.w3.org/1999/xlink" width="1024" zoomAndPan="magnify" viewBox="0 0 768 767.999994" height="1024" preserveAspectRatio="xMidYMid meet" version="1.0"><defs><clipPath id="dcd89b52b8"><path d="M 89.355469 89.355469 L 678.855469 89.355469 L 678.855469 678.855469 L 89.355469 678.855469 Z M 89.355469 89.355469 " clip-rule="nonzero"/></clipPath></defs><rect x="-76.8" width="921.6" fill="#ffffff" y="-76.799999" height="921.599993" fill-opacity="1"/><rect x="-76.8" width="921.6" fill="#ffffff" y="-76.799999" height="921.599993" fill-opacity="1"/><g clip-path="url(#dcd89b52b8)"><path fill="#74988e" d="M 570.882812 457.453125 L 380.171875 457.453125 C 365.722656 430.480469 337.40625 413.292969 306.742188 413.292969 L 303.441406 413.292969 C 290.554688 413.292969 279.699219 404.132812 277.058594 391.996094 C 297.425781 384.890625 312.085938 365.511719 312.085938 342.75 L 312.085938 336.378906 L 322.671875 336.378906 C 338.238281 336.378906 350.902344 323.710938 350.902344 308.148438 L 350.902344 295.652344 C 350.902344 283.769531 343.53125 273.597656 333.113281 269.429688 L 333.113281 231.675781 C 333.113281 201 308.160156 176.046875 277.484375 176.046875 L 274.199219 176.046875 C 265.699219 167.601562 254 162.355469 241.101562 162.355469 L 191.992188 162.355469 C 166.109375 162.355469 145.042969 183.421875 145.042969 209.300781 L 145.042969 269.957031 C 135.285156 274.40625 128.488281 284.246094 128.488281 295.640625 L 128.488281 308.136719 C 128.488281 323.699219 141.15625 336.367188 156.71875 336.367188 L 167.304688 336.367188 L 167.304688 342.734375 C 167.304688 365.488281 181.964844 384.878906 202.332031 391.980469 C 199.691406 404.121094 188.835938 413.28125 175.949219 413.28125 L 172.648438 413.28125 C 126.742188 413.28125 89.390625 450.628906 89.390625 496.539062 L 89.390625 601.707031 C 89.390625 633.515625 115.273438 659.398438 147.085938 659.398438 L 315.570312 659.398438 C 319.140625 670.511719 329.570312 678.582031 341.855469 678.582031 L 572.386719 678.582031 C 587.609375 678.582031 599.992188 666.195312 599.992188 650.976562 L 599.992188 486.5625 C 599.992188 470.496094 586.925781 457.425781 570.859375 457.425781 Z M 585.347656 486.574219 L 585.347656 619.972656 L 350.363281 619.972656 L 350.363281 486.574219 C 350.363281 478.601562 356.855469 472.109375 364.828125 472.109375 L 570.894531 472.109375 C 578.867188 472.109375 585.359375 478.589844 585.359375 486.574219 Z M 268.78125 644.726562 C 268.71875 644.726562 268.660156 644.742188 268.585938 644.742188 L 247.042969 644.742188 L 247.042969 601.988281 L 267.863281 601.988281 C 279.648438 601.988281 289.234375 611.570312 289.234375 623.359375 C 289.234375 635.144531 280.054688 644.238281 268.769531 644.714844 Z M 267.863281 587.328125 L 210.550781 587.328125 L 226.945312 488.652344 L 252.496094 488.652344 L 268.890625 587.351562 C 268.550781 587.351562 268.21875 587.328125 267.875 587.328125 Z M 195.339844 423.144531 L 226.503906 444.003906 L 205.011719 458.34375 L 193.445312 424.097656 C 194.082031 423.804688 194.71875 423.488281 195.339844 423.15625 Z M 253.78125 473.96875 L 225.648438 473.96875 L 221.871094 464.714844 L 239.707031 452.816406 L 257.546875 464.714844 L 253.769531 473.96875 Z M 252.914062 444.003906 L 284.074219 423.15625 C 284.699219 423.488281 285.324219 423.792969 285.972656 424.097656 L 274.40625 458.34375 Z M 336.242188 308.160156 C 336.242188 315.644531 330.15625 321.71875 322.683594 321.71875 L 312.097656 321.71875 L 312.097656 282.109375 L 322.683594 282.109375 C 330.167969 282.109375 336.242188 288.195312 336.242188 295.667969 Z M 318.457031 231.699219 L 318.457031 267.4375 L 311.914062 267.4375 C 310.496094 255.359375 300.410156 245.917969 288.0625 245.480469 L 288.0625 209.328125 C 288.0625 202.957031 286.777344 196.882812 284.480469 191.34375 C 303.761719 194.667969 318.46875 211.492188 318.46875 231.699219 Z M 192.003906 177.050781 L 241.113281 177.050781 C 258.914062 177.050781 273.390625 191.527344 273.390625 209.328125 L 273.390625 245.441406 L 192.246094 245.441406 C 179.496094 245.441406 168.96875 255.078125 167.515625 267.4375 L 159.726562 267.4375 L 159.726562 209.328125 C 159.726562 191.527344 174.203125 177.050781 192.003906 177.050781 Z M 156.730469 321.71875 C 149.25 321.71875 143.171875 315.632812 143.171875 308.160156 L 143.171875 295.667969 C 143.171875 288.183594 149.261719 282.109375 156.730469 282.109375 L 167.320312 282.109375 L 167.320312 321.71875 Z M 181.988281 342.761719 L 181.988281 270.359375 C 181.988281 264.699219 186.585938 260.101562 192.246094 260.101562 L 287.179688 260.101562 C 292.84375 260.101562 297.4375 264.699219 297.4375 270.359375 L 297.4375 342.761719 C 297.4375 363.421875 280.628906 380.234375 259.964844 380.234375 L 219.460938 380.234375 C 198.800781 380.234375 181.988281 363.421875 181.988281 342.761719 Z M 219.460938 394.902344 L 259.964844 394.902344 C 260.871094 394.902344 261.777344 394.878906 262.679688 394.832031 C 264.160156 401.898438 267.449219 408.304688 272.035156 413.5625 L 239.71875 435.175781 L 207.40625 413.5625 C 211.980469 408.292969 215.269531 401.886719 216.761719 394.832031 C 217.664062 394.878906 218.558594 394.902344 219.472656 394.902344 Z M 104.085938 601.71875 L 104.085938 496.550781 C 104.085938 458.734375 134.847656 427.964844 172.671875 427.964844 L 175.972656 427.964844 C 177.074219 427.964844 178.152344 427.902344 179.226562 427.828125 L 194.179688 472.097656 C 194.914062 474.261719 196.601562 475.960938 198.761719 476.695312 C 199.535156 476.964844 200.328125 477.085938 201.125 477.085938 C 202.554688 477.085938 203.972656 476.671875 205.195312 475.851562 L 209.425781 473.039062 L 213.140625 482.160156 L 195.671875 587.328125 L 161.082031 587.328125 L 161.082031 491.683594 C 161.082031 487.636719 157.792969 484.347656 153.746094 484.347656 C 149.699219 484.347656 146.414062 487.636719 146.414062 491.683594 L 146.414062 587.328125 L 131.15625 587.328125 C 127.109375 587.328125 123.820312 590.617188 123.820312 594.664062 C 123.820312 598.710938 127.109375 602 131.15625 602 L 232.371094 602 L 232.371094 644.753906 L 147.109375 644.753906 C 123.378906 644.753906 104.085938 625.449219 104.085938 601.730469 Z M 321.609375 619.972656 C 317.5625 619.972656 314.273438 623.257812 314.273438 627.304688 L 314.273438 644.742188 L 296.914062 644.742188 C 301.316406 638.761719 303.90625 631.367188 303.90625 623.371094 C 303.90625 609.457031 295.984375 597.378906 284.417969 591.375 L 266.273438 482.160156 L 269.992188 473.039062 L 274.222656 475.851562 C 275.445312 476.671875 276.863281 477.085938 278.292969 477.085938 C 279.089844 477.085938 279.882812 476.953125 280.652344 476.695312 C 282.816406 475.960938 284.503906 474.261719 285.238281 472.097656 L 300.191406 427.828125 C 301.265625 427.914062 302.355469 427.960938 303.441406 427.960938 L 306.742188 427.960938 C 329.289062 427.960938 350.304688 439.257812 363.03125 457.5 C 347.796875 458.429688 335.683594 471.109375 335.683594 486.574219 L 335.683594 619.972656 L 321.597656 619.972656 Z M 585.347656 650.988281 C 585.347656 658.117188 579.539062 663.921875 572.410156 663.921875 L 341.878906 663.921875 C 334.753906 663.921875 328.945312 658.117188 328.945312 650.988281 L 328.945312 634.640625 L 585.347656 634.640625 Z M 467.855469 576.019531 C 484.386719 576.019531 497.832031 562.570312 497.832031 546.039062 C 497.832031 529.511719 484.386719 516.0625 467.855469 516.0625 C 451.328125 516.0625 437.878906 529.511719 437.878906 546.039062 C 437.878906 562.570312 451.328125 576.019531 467.855469 576.019531 Z M 467.855469 530.746094 C 476.292969 530.746094 483.164062 537.605469 483.164062 546.054688 C 483.164062 554.5 476.304688 561.359375 467.855469 561.359375 C 459.40625 561.359375 452.550781 554.5 452.550781 546.054688 C 452.550781 537.605469 459.40625 530.746094 467.855469 530.746094 Z M 633.613281 89.304688 L 435.75 89.304688 C 410.894531 89.304688 390.660156 109.527344 390.660156 134.394531 L 390.660156 260.664062 C 390.660156 285.53125 410.882812 305.753906 435.75 305.753906 L 441.4375 305.753906 L 441.4375 356.992188 C 441.4375 359.949219 443.207031 362.617188 445.933594 363.753906 C 446.851562 364.132812 447.816406 364.328125 448.769531 364.328125 C 450.667969 364.328125 452.523438 363.59375 453.917969 362.210938 L 511.257812 305.742188 L 633.628906 305.742188 C 658.484375 305.742188 678.714844 285.519531 678.714844 260.652344 L 678.714844 134.394531 C 678.714844 109.539062 658.496094 89.304688 633.628906 89.304688 Z M 664.03125 260.664062 C 664.03125 277.4375 650.390625 291.082031 633.613281 291.082031 L 508.25 291.082031 C 506.320312 291.082031 504.472656 291.839844 503.101562 293.195312 L 456.105469 339.484375 L 456.105469 298.429688 C 456.105469 294.382812 452.816406 291.09375 448.769531 291.09375 L 435.75 291.09375 C 418.976562 291.09375 405.332031 277.449219 405.332031 260.675781 L 405.332031 134.394531 C 405.332031 117.621094 418.976562 103.976562 435.75 103.976562 L 633.613281 103.976562 C 650.390625 103.976562 664.03125 117.621094 664.03125 134.394531 Z M 534.683594 165.71875 C 517.140625 165.71875 502.871094 179.984375 502.871094 197.527344 C 502.871094 215.074219 517.140625 229.339844 534.683594 229.339844 C 552.226562 229.339844 566.496094 215.074219 566.496094 197.527344 C 566.496094 179.984375 552.226562 165.71875 534.683594 165.71875 Z M 534.683594 214.667969 C 525.230469 214.667969 517.542969 206.980469 517.542969 197.527344 C 517.542969 188.078125 525.230469 180.386719 534.683594 180.386719 C 544.132812 180.386719 551.824219 188.078125 551.824219 197.527344 C 551.824219 206.980469 544.132812 214.667969 534.683594 214.667969 Z M 598.503906 207.027344 L 598.050781 206.773438 C 594.796875 204.890625 593.011719 201.785156 593.050781 198.042969 C 593.050781 197.699219 593.050781 197.371094 593.050781 197.039062 C 593.011719 193.273438 594.796875 190.167969 598.039062 188.296875 L 598.503906 188.03125 C 605.386719 184.054688 607.757812 175.203125 603.785156 168.320312 L 594.527344 152.292969 C 590.554688 145.398438 581.714844 143.039062 574.808594 147.023438 L 574.378906 147.269531 C 571.117188 149.152344 567.535156 149.140625 564.28125 147.21875 C 564 147.046875 563.71875 146.890625 563.425781 146.730469 C 560.160156 144.871094 558.363281 141.789062 558.363281 138.023438 L 558.363281 137.511719 C 558.363281 129.554688 551.898438 123.085938 543.9375 123.085938 L 525.429688 123.085938 C 517.46875 123.085938 511 129.554688 511 137.511719 L 511 138.023438 C 511 141.789062 509.203125 144.871094 505.953125 146.71875 C 505.660156 146.875 505.363281 147.046875 505.082031 147.21875 C 501.84375 149.125 498.261719 149.152344 495.007812 147.269531 L 494.558594 147.011719 C 487.660156 143.039062 478.824219 145.398438 474.847656 152.292969 L 465.59375 168.320312 C 461.621094 175.203125 463.992188 184.054688 470.875 188.03125 L 471.328125 188.285156 C 474.582031 190.167969 476.363281 193.273438 476.328125 197.039062 C 476.328125 197.371094 476.328125 197.699219 476.328125 198.019531 C 476.363281 201.785156 474.582031 204.890625 471.328125 206.773438 L 470.886719 207.027344 C 467.5625 208.949219 465.179688 212.066406 464.175781 215.792969 C 463.171875 219.523438 463.6875 223.410156 465.605469 226.738281 L 474.863281 242.765625 C 476.78125 246.089844 479.898438 248.472656 483.628906 249.476562 C 487.355469 250.480469 491.246094 249.964844 494.570312 248.046875 L 495.011719 247.789062 C 498.273438 245.90625 501.855469 245.917969 505.097656 247.839844 C 505.390625 248.007812 505.671875 248.179688 505.953125 248.328125 C 509.230469 250.1875 511.027344 253.277344 511.027344 257.03125 L 511.027344 257.546875 C 511.027344 265.503906 517.492188 271.972656 525.453125 271.972656 L 543.960938 271.972656 C 551.921875 271.972656 558.390625 265.503906 558.390625 257.546875 L 558.390625 257.03125 C 558.390625 253.277344 560.1875 250.1875 563.449219 248.328125 C 563.742188 248.167969 564.023438 247.996094 564.320312 247.828125 C 567.558594 245.917969 571.140625 245.894531 574.40625 247.777344 L 574.84375 248.035156 C 581.742188 252.007812 590.578125 249.636719 594.554688 242.753906 L 603.808594 226.722656 C 605.726562 223.398438 606.242188 219.511719 605.238281 215.78125 C 604.234375 212.054688 601.851562 208.949219 598.527344 207.015625 Z M 590.726562 219.472656 L 590.957031 219.609375 L 581.949219 235.222656 L 581.714844 235.085938 C 573.902344 230.574219 564.613281 230.625 556.835938 235.195312 C 556.628906 235.320312 556.421875 235.441406 556.199219 235.5625 C 548.375 240 543.695312 248.035156 543.695312 257.03125 L 543.695312 257.300781 L 525.671875 257.300781 L 525.671875 257.03125 C 525.671875 248.035156 521.003906 240 513.152344 235.550781 C 512.945312 235.429688 512.738281 235.320312 512.53125 235.195312 C 504.765625 230.613281 495.460938 230.574219 487.660156 235.074219 L 487.429688 235.210938 L 478.417969 219.597656 L 478.652344 219.460938 C 486.453125 214.964844 491.0625 206.894531 490.988281 197.882812 C 490.988281 197.640625 490.988281 197.394531 490.988281 197.148438 C 491.0625 188.140625 486.453125 180.082031 478.652344 175.570312 L 478.417969 175.4375 L 487.429688 159.824219 L 487.660156 159.957031 C 495.472656 164.46875 504.765625 164.421875 512.53125 159.847656 C 512.738281 159.726562 512.945312 159.605469 513.164062 159.480469 C 520.988281 155.042969 525.671875 147.011719 525.671875 138.011719 L 525.671875 137.746094 L 543.695312 137.746094 L 543.695312 138.011719 C 543.695312 147.011719 548.363281 155.042969 556.199219 159.480469 C 556.199219 159.480469 556.199219 159.480469 556.210938 159.480469 C 556.421875 159.605469 556.640625 159.726562 556.835938 159.847656 C 564.601562 164.433594 573.902344 164.46875 581.726562 159.957031 L 581.949219 159.835938 L 590.957031 175.449219 L 590.726562 175.582031 C 582.925781 180.082031 578.316406 188.152344 578.390625 197.175781 C 578.390625 197.40625 578.390625 197.652344 578.390625 197.894531 C 578.316406 206.90625 582.925781 214.976562 590.726562 219.472656 Z M 590.726562 219.472656 " fill-opacity="1" fill-rule="nonzero"/></g></svg>